<svg width="24" height="24" viewBox="0 0 24 24" fill="none" xmlns="http://www.w3.org/2000/svg">
<path d="M0 12C0 5.37258 5.37258 0 12 0C18.6274 0 24 5.37258 24 12C24 18.6274 18.6274 24 12 24C5.37258 24 0 18.6274 0 12Z" fill="#BA8D5B"/>
<path fill-rule="evenodd" clip-rule="evenodd" d="M12 5C10.0988 5 9.8608 5.00793 9.11413 5.042C8.36887 5.07607 7.85973 5.1946 7.41453 5.36773C6.94787 5.5432 6.5246 5.81853 6.1746 6.17507C5.81864 6.52466 5.54313 6.94763 5.36727 7.41453C5.19507 7.85973 5.07607 8.36933 5.042 9.1146C5.0084 9.8608 5 10.0983 5 12C5 13.9017 5.00793 14.1392 5.042 14.8859C5.07607 15.6311 5.1946 16.1403 5.36773 16.5855C5.5432 17.0521 5.81853 17.4754 6.17507 17.8254C6.52467 18.1814 6.94764 18.4569 7.41453 18.6327C7.85973 18.8054 8.36887 18.9239 9.11413 18.958C9.8608 18.9921 10.0988 19 12 19C13.9012 19 14.1392 18.9921 14.8859 18.958C15.6311 18.9239 16.1403 18.8054 16.5855 18.6323C17.0521 18.4568 17.4754 18.1815 17.8254 17.8249C18.1814 17.4753 18.4569 17.0524 18.6327 16.5855C18.8054 16.1403 18.9239 15.6311 18.958 14.8859C18.9921 14.1392 19 13.9012 19 12C19 10.0988 18.9921 9.8608 18.958 9.11413C18.9239 8.36887 18.8054 7.85973 18.6323 7.41453C18.4565 6.94743 18.181 6.52428 17.8249 6.1746C17.4753 5.81864 17.0524 5.54313 16.5855 5.36727C16.1403 5.19507 15.6307 5.07607 14.8854 5.042C14.1392 5.0084 13.9017 5 12 5ZM12 6.2614C13.869 6.2614 14.0907 6.2684 14.8289 6.302C15.5112 6.33327 15.8817 6.44667 16.1286 6.54327C16.4553 6.66973 16.6886 6.82187 16.9336 7.0664C17.1786 7.3114 17.3303 7.54473 17.4567 7.8714C17.5529 8.11827 17.6667 8.4888 17.698 9.17107C17.7316 9.90933 17.7386 10.131 17.7386 12C17.7386 13.869 17.7316 14.0907 17.698 14.8289C17.6667 15.5112 17.5533 15.8817 17.4567 16.1286C17.3447 16.4327 17.1659 16.7077 16.9336 16.9336C16.7078 17.166 16.4327 17.3448 16.1286 17.4567C15.8817 17.5529 15.5112 17.6667 14.8289 17.698C14.0907 17.7316 13.8695 17.7386 12 17.7386C10.1305 17.7386 9.90933 17.7316 9.17107 17.698C8.4888 17.6667 8.11827 17.5533 7.8714 17.4567C7.56735 17.3447 7.29227 17.1659 7.0664 16.9336C6.83408 16.7077 6.65533 16.4326 6.54327 16.1286C6.44713 15.8817 6.33327 15.5112 6.302 14.8289C6.2684 14.0907 6.2614 13.869 6.2614 12C6.2614 10.131 6.2684 9.90933 6.302 9.17107C6.33327 8.4888 6.44667 8.11827 6.54327 7.8714C6.66973 7.54473 6.82187 7.3114 7.0664 7.0664C7.29224 6.83402 7.56732 6.65526 7.8714 6.54327C8.11827 6.44713 8.4888 6.33327 9.17107 6.302C9.90933 6.2684 10.131 6.2614 12 6.2614Z" fill="white"/>
<path fill-rule="evenodd" clip-rule="evenodd" d="M11.992 14.2551C11.6944 14.2551 11.3996 14.1955 11.1245 14.0797C10.8495 13.964 10.5996 13.7943 10.3891 13.5804C10.1786 13.3665 10.0116 13.1126 9.89772 12.8331C9.78379 12.5536 9.72516 12.2541 9.72516 11.9516C9.72516 11.6491 9.78379 11.3496 9.89772 11.0701C10.0116 10.7906 10.1786 10.5367 10.3891 10.3228C10.5996 10.1089 10.8495 9.93924 11.1245 9.82348C11.3996 9.70772 11.6944 9.64814 11.992 9.64814C12.5933 9.64814 13.1699 9.89082 13.595 10.3228C14.0201 10.7548 14.2589 11.3407 14.2589 11.9516C14.2589 12.5625 14.0201 13.1484 13.595 13.5804C13.1699 14.0124 12.5933 14.2551 11.992 14.2551ZM11.992 8.40321C11.0659 8.40321 10.1777 8.77706 9.5228 9.44251C8.86791 10.108 8.5 11.0105 8.5 11.9516C8.5 12.8927 8.86791 13.7952 9.5228 14.4607C10.1777 15.1262 11.0659 15.5 11.992 15.5C12.9182 15.5 13.8064 15.1262 14.4613 14.4607C15.1162 13.7952 15.4841 12.8927 15.4841 11.9516C15.4841 11.0105 15.1162 10.108 14.4613 9.44251C13.8064 8.77706 12.9182 8.40321 11.992 8.40321ZM16.5 8.33877C16.5 8.56123 16.413 8.77458 16.2582 8.93188C16.1034 9.08918 15.8935 9.17755 15.6745 9.17755C15.4556 9.17755 15.2457 9.08918 15.0909 8.93188C14.9361 8.77458 14.8491 8.56123 14.8491 8.33877C14.8491 8.11632 14.9361 7.90297 15.0909 7.74567C15.2457 7.58837 15.4556 7.5 15.6745 7.5C15.8935 7.5 16.1034 7.58837 16.2582 7.74567C16.413 7.90297 16.5 8.11632 16.5 8.33877Z" fill="white"/>
</svg>
