<svg width="214" height="46" viewBox="0 0 214 46" fill="none" xmlns="http://www.w3.org/2000/svg">
<g clip-path="url(#clip0_6066_13758)">
<path d="M0.000976562 13.2591C0.000976562 12.9422 0.142437 12.7838 0.425358 12.7838H1.82603C1.92497 12.7837 2.02235 12.8085 2.10919 12.856C2.21982 12.927 2.3053 13.0311 2.35345 13.1536L8.7552 25.8108L9.16661 27.0387L9.03764 25.8014L8.93532 13.2591C8.93057 13.1356 8.96934 13.0144 9.04484 12.9167C9.0852 12.8704 9.13578 12.8341 9.19256 12.8108C9.24934 12.7875 9.31077 12.7777 9.37195 12.7824H10.813C10.922 12.7782 11.0282 12.8174 11.1084 12.8914C11.1852 12.9642 11.2239 13.0824 11.2244 13.2461V30.6973C11.2244 31.0069 11.074 31.1617 10.7734 31.1617H9.41014C9.30765 31.1591 9.2069 31.1345 9.11473 31.0895C8.99985 31.0275 8.91259 30.9243 8.87048 30.8006L2.50836 18.3233L2.05804 17.0607L2.20214 18.3363L2.27635 30.6828C2.27635 31.0006 2.13922 31.1595 1.86494 31.1595H0.423917C0.141957 31.1595 0.000976562 31.0006 0.000976562 30.6828V13.2591Z" fill="#0F1826"/>
<path d="M26.608 30.67C26.6591 30.8145 26.6533 30.9337 26.5892 31.024C26.5562 31.0687 26.5125 31.1046 26.4622 31.1282C26.4119 31.1517 26.3565 31.1624 26.301 31.159H24.6424C24.5433 31.1578 24.4461 31.1315 24.36 31.0825C24.3082 31.05 24.2641 31.0066 24.2308 30.9553C24.1975 30.9041 24.1756 30.8462 24.1669 30.7856L23.3044 27.3965H17.7507L16.9019 30.7856C16.8932 30.8461 16.8714 30.9039 16.8382 30.9552C16.805 31.0064 16.7611 31.0498 16.7096 31.0825C16.6231 31.1314 16.5257 31.1577 16.4264 31.159H14.7714C14.7166 31.1631 14.6616 31.1527 14.612 31.129C14.5623 31.1054 14.5197 31.0692 14.4882 31.024C14.4578 30.9707 14.4397 30.9112 14.4352 30.8499C14.4307 30.7887 14.44 30.7272 14.4623 30.67L19.3618 13.169C19.3885 13.0482 19.454 12.9396 19.5484 12.8599C19.6281 12.8 19.7254 12.7682 19.8251 12.7696H21.2517C21.3532 12.7691 21.4523 12.8007 21.5348 12.8599C21.6319 12.9382 21.6997 13.0471 21.7272 13.169L26.608 30.67ZM18.3019 25.231H22.7626L20.7307 17.1641L20.5384 15.7982L20.3453 17.1641L18.3019 25.231Z" fill="#0F1826"/>
<path d="M34.5237 13.245C34.5237 13.0738 34.5662 12.9561 34.6527 12.8838C34.7278 12.8191 34.8232 12.7828 34.9222 12.7812H36.4648C36.6363 12.7812 36.753 12.826 36.8186 12.9163C36.8891 13.0302 36.9228 13.1632 36.9151 13.297L36.9021 26.9184C36.911 27.5588 36.7907 28.1944 36.5484 28.7871C36.3325 29.3195 36.0092 29.8015 35.5989 30.2029C35.1885 30.6042 34.6998 30.9163 34.1635 31.1194C33.6018 31.3366 33.0045 31.4459 32.4025 31.4416C31.7425 31.4436 31.0886 31.3142 30.4788 31.0609C29.9055 30.8354 29.3889 30.4859 28.9657 30.0374C28.8739 29.9419 28.8038 29.8275 28.7604 29.7022C28.7092 29.5643 28.7431 29.4357 28.8634 29.3151L29.6985 28.3356C29.8188 28.2157 29.9362 28.1688 30.0522 28.1911C30.1748 28.2211 30.2849 28.2888 30.3671 28.3847C30.6002 28.5951 30.8623 28.7707 31.1452 28.9062C31.4992 29.0793 31.8892 29.1655 32.2829 29.1576C32.5928 29.1609 32.8997 29.0973 33.1829 28.9712C33.453 28.8494 33.6941 28.6714 33.8904 28.449C34.0953 28.2108 34.2524 27.9351 34.353 27.6371C34.4669 27.3011 34.5231 26.9482 34.5194 26.5934L34.5237 13.245Z" fill="#0F1826"/>
<path d="M40.4474 18.7111C40.4425 17.8938 40.564 17.0807 40.8077 16.3008C41.0328 15.5734 41.3975 14.8972 41.8812 14.3101C42.3652 13.7326 42.9711 13.2703 43.6551 12.9564C44.3617 12.6256 45.1824 12.4605 46.1171 12.4609C47.0423 12.4609 47.8589 12.6261 48.5669 12.9564C49.2513 13.271 49.86 13.7297 50.3516 14.3014C50.8446 14.8838 51.2164 15.5592 51.4453 16.2878C51.6929 17.0667 51.8164 17.8799 51.8113 18.6974V25.2575C51.8163 26.074 51.6927 26.8863 51.4453 27.6643C51.2171 28.3912 50.8478 29.0657 50.3588 29.6492C49.869 30.2239 49.2593 30.6838 48.5726 30.9963C47.8603 31.3271 47.0406 31.4925 46.1135 31.4925C45.1865 31.4925 44.3723 31.3274 43.671 30.997C42.9893 30.6822 42.384 30.2226 41.8971 29.6499C41.409 29.066 41.0408 28.3912 40.8134 27.6643C40.5657 26.8854 40.4422 26.0721 40.4474 25.2546V18.7111ZM42.8251 25.4121C42.821 25.9182 42.8922 26.4221 43.0362 26.9073C43.1651 27.3466 43.3794 27.7561 43.6667 28.1121C43.9465 28.4529 44.2975 28.728 44.6948 28.9182C45.1393 29.1231 45.6244 29.2241 46.1135 29.2136C46.6052 29.2239 47.0928 29.1229 47.5401 28.9182C47.9413 28.7283 48.2966 28.4532 48.5813 28.1121C48.8717 27.7597 49.0881 27.3521 49.2175 26.9138C49.3639 26.4313 49.4367 25.9294 49.4337 25.4251V18.5306C49.4383 18.0304 49.3654 17.5326 49.2175 17.0549C49.0834 16.6167 48.8678 16.2079 48.582 15.85C48.3008 15.5046 47.9473 15.2252 47.5466 15.0317C47.0995 14.8327 46.616 14.7294 46.1268 14.7283C45.6377 14.7272 45.1537 14.8283 44.7057 15.0252C44.3045 15.2147 43.9509 15.4922 43.671 15.837C43.3834 16.1951 43.1681 16.6057 43.0369 17.0462C42.8936 17.527 42.8224 18.0266 42.8258 18.5284L42.8251 25.4121Z" fill="#0F1826"/>
<path d="M53.9939 13.2192C53.9895 13.1599 53.9969 13.1002 54.0157 13.0438C54.0345 12.9874 54.0643 12.9353 54.1034 12.8905C54.1397 12.8544 54.1829 12.8261 54.2305 12.8073C54.2781 12.7885 54.329 12.7798 54.3801 12.7815H64.6892C64.7383 12.7807 64.7869 12.79 64.8323 12.8087C64.8776 12.8275 64.9187 12.8553 64.9529 12.8905C64.9923 12.9351 65.0223 12.9872 65.0413 13.0436C65.0602 13.1001 65.0677 13.1598 65.0632 13.2192V14.6494C65.0632 14.7938 65.0271 14.9007 64.9536 14.965C64.881 15.0294 64.7868 15.0639 64.6899 15.0618H60.7177V30.7231C60.7266 30.8419 60.6894 30.9596 60.614 31.0517C60.5794 31.088 60.5374 31.1165 60.491 31.1353C60.4445 31.1542 60.3946 31.1628 60.3445 31.1608H58.7226C58.6705 31.1637 58.6184 31.1555 58.5697 31.1367C58.521 31.1179 58.4769 31.0889 58.4402 31.0517C58.3644 30.9598 58.3272 30.842 58.3365 30.7231V15.0647H54.3801C54.2791 15.0683 54.1803 15.0338 54.1034 14.9679C54.0314 14.9036 53.9939 14.7989 53.9939 14.6523V13.2192Z" fill="#0F1826"/>
<path d="M145.765 13.2192C145.761 13.1599 145.768 13.1003 145.787 13.0439C145.806 12.9874 145.835 12.9353 145.874 12.8905C145.911 12.8545 145.954 12.8262 146.001 12.8075C146.049 12.7887 146.1 12.7798 146.151 12.7814H156.461C156.51 12.7807 156.558 12.7899 156.604 12.8087C156.649 12.8274 156.69 12.8553 156.724 12.8905C156.763 12.9353 156.793 12.9874 156.812 13.0439C156.831 13.1003 156.838 13.1599 156.833 13.2192V14.6493C156.833 14.7938 156.797 14.9007 156.724 14.965C156.652 15.0292 156.558 15.0638 156.461 15.0618H152.489V30.723C152.498 30.8418 152.461 30.9595 152.386 31.0517C152.351 31.088 152.309 31.1165 152.262 31.1353C152.216 31.1541 152.166 31.1628 152.116 31.1608H150.496C150.444 31.1636 150.392 31.1554 150.343 31.1366C150.294 31.1178 150.25 31.0889 150.213 31.0517C150.138 30.9595 150.101 30.8418 150.11 30.723V15.0647H146.151C146.05 15.0681 145.951 15.0336 145.874 14.9679C145.802 14.9036 145.765 14.7989 145.765 14.6522V13.2192Z" fill="#0F1826"/>
<path d="M169.665 30.67C169.717 30.8145 169.71 30.9337 169.646 31.024C169.613 31.0688 169.57 31.1047 169.519 31.1283C169.469 31.1519 169.413 31.1625 169.358 31.159H167.701C167.601 31.1578 167.504 31.1315 167.418 31.0825C167.366 31.0498 167.322 31.0064 167.289 30.9552C167.256 30.9039 167.234 30.8461 167.225 30.7856L166.361 27.3965H160.807L159.958 30.7856C159.949 30.8461 159.928 30.9039 159.894 30.9552C159.861 31.0064 159.817 31.0498 159.766 31.0825C159.679 31.1314 159.582 31.1577 159.483 31.159H157.825C157.771 31.1633 157.716 31.153 157.666 31.1293C157.616 31.1056 157.574 31.0693 157.542 31.024C157.512 30.9707 157.493 30.9112 157.489 30.85C157.484 30.7887 157.494 30.7272 157.516 30.67L162.416 13.169C162.442 13.0481 162.508 12.9394 162.602 12.8599C162.682 12.8 162.778 12.7682 162.878 12.7696H164.306C164.407 12.7689 164.506 12.8005 164.588 12.8599C164.686 12.9379 164.754 13.0469 164.781 13.169L169.665 30.67ZM161.361 25.231H165.822L163.79 17.1641L163.597 15.7982L163.405 17.1641L161.361 25.231Z" fill="#0F1826"/>
<path d="M172.548 13.3482C172.541 13.2067 172.584 13.0672 172.67 12.9545C172.716 12.904 172.772 12.8648 172.836 12.8397C172.899 12.8147 172.968 12.8045 173.036 12.8101H174.681C175.008 12.8101 175.17 12.9906 175.17 13.3518V15.5549C175.176 15.7971 175.126 16.0374 175.026 16.2577C174.937 16.4436 174.808 16.6067 174.647 16.7344C174.484 16.8611 174.298 16.9552 174.1 17.0118C173.895 17.0717 173.683 17.1021 173.47 17.1021C173.204 17.1021 173.072 16.9944 173.072 16.7792V16.2497C173.069 16.2064 173.078 16.163 173.098 16.1247C173.118 16.0864 173.149 16.0546 173.187 16.033C173.27 15.9882 173.363 15.9658 173.458 15.968C173.504 15.9732 173.55 15.9678 173.593 15.9523C173.637 15.9367 173.676 15.9115 173.708 15.8785C173.76 15.803 173.785 15.7122 173.78 15.6206C173.787 15.5369 173.767 15.4532 173.722 15.3822C173.694 15.3551 173.661 15.3345 173.624 15.322C173.587 15.3095 173.548 15.3054 173.51 15.31H172.983C172.869 15.3123 172.759 15.2706 172.675 15.1937C172.589 15.1164 172.546 14.9922 172.546 14.8195L172.548 13.3482Z" fill="#0F1826"/>
<path d="M179.671 13.258C179.671 12.9402 179.813 12.7812 180.095 12.7812H181.626C181.909 12.7812 182.05 12.9402 182.05 13.258V28.8904H188.055C188.159 28.8853 188.262 28.9202 188.343 28.9879C188.415 29.0522 188.452 29.1569 188.452 29.3028V30.7207C188.457 30.78 188.449 30.8397 188.431 30.8961C188.412 30.9526 188.382 31.0047 188.343 31.0494C188.305 31.0863 188.26 31.1152 188.21 31.134C188.16 31.1529 188.108 31.1615 188.055 31.1591H180.095C179.813 31.1591 179.671 31.0002 179.671 30.6824V13.258Z" fill="#0F1826"/>
<path d="M192.259 13.258C192.259 12.9402 192.403 12.7812 192.696 12.7812H194.226C194.5 12.7812 194.637 12.9402 194.637 13.258V30.6817C194.637 30.9995 194.5 31.1584 194.226 31.1584H192.696C192.404 31.1584 192.259 30.9995 192.259 30.6817V13.258Z" fill="#0F1826"/>
<path d="M202.456 18.4126L201.993 16.7375L202.147 18.3989L202.249 30.6963C202.266 31.0055 202.137 31.16 201.864 31.16H200.36C200.222 31.16 200.128 31.1174 200.076 31.0315C200.02 30.9247 199.994 30.8047 199.999 30.684V13.1939C200.002 13.0815 200.04 12.9729 200.109 12.884C200.143 12.8448 200.186 12.814 200.234 12.7939C200.282 12.7739 200.334 12.7652 200.385 12.7684H202.198C202.243 12.7639 202.288 12.771 202.329 12.7889C202.371 12.8069 202.407 12.8351 202.435 12.871C202.491 12.9596 202.537 13.055 202.57 13.1549L206.794 24.3927L206.999 25.4624L207.205 24.3789L211.456 13.1534C211.489 13.0535 211.534 12.9581 211.591 12.8695C211.619 12.8336 211.655 12.8053 211.697 12.7874C211.739 12.7694 211.784 12.7624 211.829 12.767H213.618C213.669 12.7637 213.721 12.7725 213.768 12.7925C213.816 12.8126 213.858 12.8434 213.892 12.8825C213.961 12.9714 213.999 13.0801 214.001 13.1924V30.6819C214.019 30.9997 213.904 31.1583 213.656 31.1579H212.148C211.892 31.1579 211.765 31.0033 211.765 30.6941L211.88 18.4148L212.024 16.791L211.587 18.4148L207.985 27.9125C207.96 28.0251 207.907 28.1294 207.831 28.2159C207.763 28.2746 207.676 28.3047 207.586 28.2997H206.428C206.343 28.3033 206.26 28.2732 206.196 28.2159C206.12 28.1294 206.067 28.0251 206.042 27.9125L202.456 18.4126Z" fill="#0F1826"/>
<path d="M139.663 13.8509L137.845 14.1673C134.139 14.8124 130.692 15.7967 127.554 16.9553V6.97317L126.586 7.41088C124.385 8.40349 122.299 9.4407 120.31 10.5339L120.243 0.075716L119.19 0.751978C114.066 4.0389 109.368 7.7739 105.173 11.8854C101.133 8.04772 96.5788 4.32102 91.5783 0.769611L90.4942 0V10.8399C88.328 9.61703 86.1071 8.50306 83.8397 7.50734L82.8722 7.08208L82.9176 16.3641C79.5991 15.219 76.2579 14.4712 72.9467 14.133L71.3174 13.9671L84.3601 30.3426L84.3022 18.3555C86.5438 19.2341 88.6181 20.237 90.4952 21.2711V31.6484L90.6305 31.832C94.4652 37.0181 104.554 45.4537 104.981 45.8105L105.418 46.1746L105.857 45.8126C106.284 45.4599 116.38 37.1114 120.218 31.7231L120.444 31.3352L120.382 21.6736C122.146 20.7422 124.085 19.8211 126.181 18.9685V30.3934L139.663 13.8509ZM127.554 18.4292C130.223 17.4189 133.127 16.5332 136.23 15.8828L127.554 26.5267V18.4292ZM74.4655 15.7117C77.4629 16.1452 80.2961 16.8993 82.9228 17.839L82.9641 26.3815L74.4655 15.7117ZM118.875 2.60133L118.888 11.3336C115.819 13.1031 112.983 15.0219 110.317 17.1399C109.737 16.4989 109.14 15.859 108.527 15.22C107.759 14.4193 106.966 13.6238 106.154 12.8313C109.982 9.08182 114.211 5.68288 118.875 2.60133ZM95.7703 22.8871C94.4859 22.0169 93.1828 21.2058 91.8674 20.4548V13.2452C94.4167 14.7937 96.8823 16.4989 99.2488 18.3514C98.0449 19.8149 96.8844 21.3271 95.7703 22.8871ZM100.315 19.1998C101.657 20.2879 102.965 21.4236 104.237 22.6039C103.008 23.8486 101.809 25.1545 100.633 26.5277C99.5452 25.6285 98.2938 24.6576 96.8958 23.6661C97.9902 22.132 99.1291 20.6426 100.315 19.1998ZM109.257 17.9998C107.867 19.1511 106.524 20.3584 105.216 21.6331C103.914 20.4227 102.575 19.2589 101.201 18.1439C102.478 16.6452 103.806 15.1951 105.189 13.7928C106.621 15.1869 107.978 16.5892 109.257 17.9998ZM109.049 27.482C107.208 28.9662 105.936 30.1663 105.279 30.8156C104.646 30.1497 103.426 28.9226 101.686 27.4176C102.845 26.0651 104.028 24.7779 105.239 23.552C106.552 24.8142 107.822 26.1242 109.049 27.482ZM100.795 28.4756C103.316 30.66 104.727 32.2479 104.749 32.2718L105.249 32.8392L105.765 32.2863C105.786 32.2635 107.261 30.6963 109.968 28.5161C110.831 29.5035 111.67 30.5148 112.486 31.5478L105.462 38.2181L98.3309 31.5955C99.1435 30.5179 99.9633 29.4786 100.795 28.4756ZM106.218 22.5822C107.5 21.3365 108.817 20.1561 110.177 19.0308C111.573 20.6208 112.87 22.2181 114.062 23.8175C113.934 23.9025 113.808 23.9866 113.684 24.0695C112.361 24.9595 111.174 25.8235 110.134 26.6263C108.873 25.2291 107.567 23.8808 106.218 22.5822ZM111.239 18.1719C113.635 16.2749 116.17 14.5407 118.892 12.932L118.905 20.9019C117.566 21.6342 116.333 22.3664 115.216 23.0728C113.998 21.4381 112.671 19.8035 111.239 18.1719ZM91.8674 2.67497C96.4146 5.96915 100.542 9.37639 104.206 12.849C103.489 13.575 102.787 14.3104 102.102 15.0582C101.434 15.7884 100.778 16.5342 100.134 17.2914C97.4925 15.2221 94.7306 13.3313 91.8674 11.6354V2.67497ZM86.2764 17.6627C85.6166 17.3806 84.9548 17.113 84.2919 16.8619L84.2547 9.20629C86.3796 10.1771 88.4612 11.2537 90.4921 12.4289V19.6946C89.0972 18.9478 87.6899 18.2684 86.2764 17.6627ZM94.9794 24.0146C93.8953 25.5859 92.8566 27.1998 91.8685 28.8542V22.0522C92.9887 22.7118 94.0295 23.3736 94.9794 24.0146ZM105.421 44.3792C103.465 42.7196 95.4637 35.8388 92.0027 31.3653C93.2892 29.0876 94.6562 26.899 96.1049 24.7956C97.4605 25.7581 98.6799 26.7051 99.7434 27.5857C98.7687 28.7629 97.8085 29.9879 96.8576 31.2657L96.4869 31.7636L105.473 40.109L114.34 31.6878L113.956 31.1931C113.019 29.9868 112.051 28.8096 111.053 27.6635C112.054 26.8918 113.19 26.0651 114.449 25.2188C114.589 25.1244 114.732 25.0289 114.877 24.9335C116.384 27.0432 117.711 29.1571 118.846 31.2647C115.4 35.8854 107.382 42.731 105.421 44.3792ZM118.916 28.5959C118.045 27.1303 117.082 25.6606 116.03 24.1888C116.917 23.6298 117.877 23.0541 118.907 22.4764L118.916 28.5959ZM120.37 20.1229L120.318 12.1084C122.18 11.0619 124.128 10.0672 126.179 9.11502V17.4822C124.089 18.3099 122.147 19.2081 120.37 20.1229Z" fill="#BA8D5B"/>
</g>
<defs>
<clipPath id="clip0_6066_13758">
<rect width="214" height="46" fill="white"/>
</clipPath>
</defs>
</svg>
